<svg id="visual" viewBox="0 0 900 600" width="900" height="600" xmlns="http://www.w3.org/2000/svg" xmlns:xlink="http://www.w3.org/1999/xlink" version="1.1"><rect x="0" y="0" width="900" height="600" fill="#7298bf"></rect><path d="M0 355L10 366C20 377 40 399 60 399.5C80 400 100 379 120 392.2C140 405.3 160 452.7 180 448.2C200 443.7 220 387.3 240 348.3C260 309.3 280 287.7 300 294C320 300.3 340 334.7 360 352C380 369.3 400 369.7 420 348.7C440 327.7 460 285.3 480 300.5C500 315.7 520 388.3 540 392.7C560 397 580 333 600 300.2C620 267.3 640 265.7 660 301.8C680 338 700 412 720 415.8C740 419.7 760 353.3 780 328.3C800 303.3 820 319.7 840 310C860 300.3 880 264.7 890 246.8L900 229L900 601L890 601C880 601 860 601 840 601C820 601 800 601 780 601C760 601 740 601 720 601C700 601 680 601 660 601C640 601 620 601 600 601C580 601 560 601 540 601C520 601 500 601 480 601C460 601 440 601 420 601C400 601 380 601 360 601C340 601 320 601 300 601C280 601 260 601 240 601C220 601 200 601 180 601C160 601 140 601 120 601C100 601 80 601 60 601C40 601 20 601 10 601L0 601Z" fill="#7298bf"></path><path d="M0 355L10 378.2C20 401.3 40 447.7 60 470.8C80 494 100 494 120 489.5C140 485 160 476 180 477.3C200 478.7 220 490.3 240 499.2C260 508 280 514 300 500.5C320 487 340 454 360 434.5C380 415 400 409 420 410.3C440 411.7 460 420.3 480 430.5C500 440.7 520 452.3 540 441C560 429.7 580 395.3 600 376.7C620 358 640 355 660 374.3C680 393.7 700 435.3 720 464C740 492.7 760 508.3 780 492.2C800 476 820 428 840 399.2C860 370.3 880 360.7 890 355.8L900 351L900 601L890 601C880 601 860 601 840 601C820 601 800 601 780 601C760 601 740 601 720 601C700 601 680 601 660 601C640 601 620 601 600 601C580 601 560 601 540 601C520 601 500 601 480 601C460 601 440 601 420 601C400 601 380 601 360 601C340 601 320 601 300 601C280 601 260 601 240 601C220 601 200 601 180 601C160 601 140 601 120 601C100 601 80 601 60 601C40 601 20 601 10 601L0 601Z" fill="#dda260"></path></svg>