<svg id="visual" viewBox="0 0 900 600" width="900" height="600" xmlns="http://www.w3.org/2000/svg" xmlns:xlink="http://www.w3.org/1999/xlink" version="1.1"><rect x="0" y="0" width="900" height="600" fill="#dda260"></rect><path d="M0 354L21.5 356.7C43 359.3 86 364.7 128.8 380.3C171.7 396 214.3 422 257.2 428.3C300 434.7 343 421.3 385.8 406.7C428.7 392 471.3 376 514.2 373.3C557 370.7 600 381.3 642.8 390.7C685.7 400 728.3 408 771.2 414.8C814 421.7 857 427.3 878.5 430.2L900 433L900 601L878.5 601C857 601 814 601 771.2 601C728.3 601 685.7 601 642.8 601C600 601 557 601 514.2 601C471.3 601 428.7 601 385.8 601C343 601 300 601 257.2 601C214.3 601 171.7 601 128.8 601C86 601 43 601 21.5 601L0 601Z" fill="#b36722"></path><path d="M0 434L21.5 427.5C43 421 86 408 128.8 412.2C171.7 416.3 214.3 437.7 257.2 441.7C300 445.7 343 432.3 385.8 433.7C428.7 435 471.3 451 514.2 457.3C557 463.7 600 460.3 642.8 454.3C685.7 448.3 728.3 439.7 771.2 436C814 432.3 857 433.7 878.5 434.3L900 435L900 601L878.5 601C857 601 814 601 771.2 601C728.3 601 685.7 601 642.8 601C600 601 557 601 514.2 601C471.3 601 428.7 601 385.8 601C343 601 300 601 257.2 601C214.3 601 171.7 601 128.8 601C86 601 43 601 21.5 601L0 601Z" fill="#cc5e63"></path><path d="M0 498L21.5 497.3C43 496.7 86 495.3 128.8 492.5C171.7 489.7 214.3 485.3 257.2 478.3C300 471.3 343 461.7 385.8 455.3C428.7 449 471.3 446 514.2 455.2C557 464.3 600 485.7 642.8 489.3C685.7 493 728.3 479 771.2 473.7C814 468.3 857 471.7 878.5 473.3L900 475L900 601L878.5 601C857 601 814 601 771.2 601C728.3 601 685.7 601 642.8 601C600 601 557 601 514.2 601C471.3 601 428.7 601 385.8 601C343 601 300 601 257.2 601C214.3 601 171.7 601 128.8 601C86 601 43 601 21.5 601L0 601Z" fill="#bd6d9c"></path><path d="M0 507L21.5 508.2C43 509.3 86 511.7 128.8 517.3C171.7 523 214.3 532 257.2 529C300 526 343 511 385.8 506C428.7 501 471.3 506 514.2 508.8C557 511.7 600 512.3 642.8 511.7C685.7 511 728.3 509 771.2 506C814 503 857 499 878.5 497L900 495L900 601L878.5 601C857 601 814 601 771.2 601C728.3 601 685.7 601 642.8 601C600 601 557 601 514.2 601C471.3 601 428.7 601 385.8 601C343 601 300 601 257.2 601C214.3 601 171.7 601 128.8 601C86 601 43 601 21.5 601L0 601Z" fill="#9585bd"></path><path d="M0 542L21.5 544.8C43 547.7 86 553.3 128.8 557C171.7 560.7 214.3 562.3 257.2 558.7C300 555 343 546 385.8 541C428.7 536 471.3 535 514.2 535.8C557 536.7 600 539.3 642.8 537.7C685.7 536 728.3 530 771.2 531.8C814 533.7 857 543.3 878.5 548.2L900 553L900 601L878.5 601C857 601 814 601 771.2 601C728.3 601 685.7 601 642.8 601C600 601 557 601 514.2 601C471.3 601 428.7 601 385.8 601C343 601 300 601 257.2 601C214.3 601 171.7 601 128.8 601C86 601 43 601 21.5 601L0 601Z" fill="#7298bf"></path></svg>